<mxfile host="Electron" agent="Mozilla/5.0 (Windows NT 10.0; Win64; x64) AppleWebKit/537.36 (KHTML, like Gecko) draw.io/28.1.2 Chrome/138.0.7204.243 Electron/37.4.0 Safari/537.36" version="28.1.2">
  <diagram name="PÃ¡gina-1" id="TRzpQWi_2IB9BStaV-Bt">
    <mxGraphModel dx="3149" dy="1933" grid="1" gridSize="10" guides="1" tooltips="1" connect="1" arrows="1" fold="1" page="1" pageScale="1" pageWidth="827" pageHeight="1169" math="0" shadow="0">
      <root>
        <mxCell id="0" />
        <mxCell id="1" parent="0" />
        <mxCell id="u8hNJ6VD8W-UxZuqvrLK-2" value="Categoria" style="whiteSpace=wrap;html=1;align=center;fillColor=#CCCCFF;" vertex="1" parent="1">
          <mxGeometry x="-340" y="90" width="100" height="40" as="geometry" />
        </mxCell>
        <mxCell id="u8hNJ6VD8W-UxZuqvrLK-3" value="Producto" style="whiteSpace=wrap;html=1;align=center;fillColor=#CCCCFF;" vertex="1" parent="1">
          <mxGeometry x="30" y="210" width="100" height="40" as="geometry" />
        </mxCell>
        <mxCell id="u8hNJ6VD8W-UxZuqvrLK-4" value="Proveedor" style="whiteSpace=wrap;html=1;align=center;fillColor=#CCCCFF;" vertex="1" parent="1">
          <mxGeometry x="40" y="-60" width="100" height="40" as="geometry" />
        </mxCell>
        <mxCell id="u8hNJ6VD8W-UxZuqvrLK-5" value="Cliente" style="whiteSpace=wrap;html=1;align=center;fillColor=#CCCCFF;" vertex="1" parent="1">
          <mxGeometry x="500" y="-90" width="100" height="40" as="geometry" />
        </mxCell>
        <mxCell id="u8hNJ6VD8W-UxZuqvrLK-6" value="Empleado" style="whiteSpace=wrap;html=1;align=center;fillColor=#CCCCFF;" vertex="1" parent="1">
          <mxGeometry x="510" y="420" width="100" height="40" as="geometry" />
        </mxCell>
        <mxCell id="u8hNJ6VD8W-UxZuqvrLK-7" value="DetalleVenta" style="whiteSpace=wrap;html=1;align=center;fillColor=#CCCCFF;" vertex="1" parent="1">
          <mxGeometry x="970" y="170" width="100" height="40" as="geometry" />
        </mxCell>
        <mxCell id="u8hNJ6VD8W-UxZuqvrLK-8" value="Venta" style="whiteSpace=wrap;html=1;align=center;fillColor=#CCCCFF;" vertex="1" parent="1">
          <mxGeometry x="500" y="170" width="100" height="40" as="geometry" />
        </mxCell>
        <mxCell id="u8hNJ6VD8W-UxZuqvrLK-9" value="Nombre" style="ellipse;whiteSpace=wrap;html=1;align=center;" vertex="1" parent="1">
          <mxGeometry x="-280" y="10" width="100" height="40" as="geometry" />
        </mxCell>
        <mxCell id="u8hNJ6VD8W-UxZuqvrLK-10" value="Nombre" style="ellipse;whiteSpace=wrap;html=1;align=center;" vertex="1" parent="1">
          <mxGeometry x="-140" y="-130" width="100" height="40" as="geometry" />
        </mxCell>
        <mxCell id="u8hNJ6VD8W-UxZuqvrLK-11" value="CategoriaID" style="ellipse;whiteSpace=wrap;html=1;align=center;fontStyle=4;" vertex="1" parent="1">
          <mxGeometry x="-400" y="10" width="100" height="40" as="geometry" />
        </mxCell>
        <mxCell id="u8hNJ6VD8W-UxZuqvrLK-12" value="Telefono" style="ellipse;whiteSpace=wrap;html=1;align=center;" vertex="1" parent="1">
          <mxGeometry x="90" y="-170" width="100" height="40" as="geometry" />
        </mxCell>
        <mxCell id="u8hNJ6VD8W-UxZuqvrLK-13" value="ProveedorID" style="ellipse;whiteSpace=wrap;html=1;align=center;fontStyle=4;" vertex="1" parent="1">
          <mxGeometry x="-30" y="-160" width="100" height="40" as="geometry" />
        </mxCell>
        <mxCell id="u8hNJ6VD8W-UxZuqvrLK-14" value="Direccion" style="ellipse;whiteSpace=wrap;html=1;align=center;" vertex="1" parent="1">
          <mxGeometry x="190" y="-160" width="100" height="40" as="geometry" />
        </mxCell>
        <mxCell id="u8hNJ6VD8W-UxZuqvrLK-15" value="" style="endArrow=none;html=1;rounded=0;entryX=0.25;entryY=0;entryDx=0;entryDy=0;exitX=0.756;exitY=0.94;exitDx=0;exitDy=0;exitPerimeter=0;" edge="1" parent="1" source="u8hNJ6VD8W-UxZuqvrLK-11" target="u8hNJ6VD8W-UxZuqvrLK-2">
          <mxGeometry relative="1" as="geometry">
            <mxPoint x="-140" y="79.5" as="sourcePoint" />
            <mxPoint x="20" y="79.5" as="targetPoint" />
          </mxGeometry>
        </mxCell>
        <mxCell id="u8hNJ6VD8W-UxZuqvrLK-17" value="" style="endArrow=none;html=1;rounded=0;entryX=0.5;entryY=1;entryDx=0;entryDy=0;exitX=0.75;exitY=0;exitDx=0;exitDy=0;" edge="1" parent="1" source="u8hNJ6VD8W-UxZuqvrLK-2" target="u8hNJ6VD8W-UxZuqvrLK-9">
          <mxGeometry relative="1" as="geometry">
            <mxPoint x="-70" y="99" as="sourcePoint" />
            <mxPoint x="90" y="99" as="targetPoint" />
          </mxGeometry>
        </mxCell>
        <mxCell id="u8hNJ6VD8W-UxZuqvrLK-18" value="" style="endArrow=none;html=1;rounded=0;exitX=0.603;exitY=0.905;exitDx=0;exitDy=0;entryX=0.427;entryY=0.095;entryDx=0;entryDy=0;exitPerimeter=0;entryPerimeter=0;" edge="1" parent="1" source="u8hNJ6VD8W-UxZuqvrLK-13" target="u8hNJ6VD8W-UxZuqvrLK-4">
          <mxGeometry relative="1" as="geometry">
            <mxPoint x="20" y="170" as="sourcePoint" />
            <mxPoint x="180" y="170" as="targetPoint" />
          </mxGeometry>
        </mxCell>
        <mxCell id="u8hNJ6VD8W-UxZuqvrLK-19" value="" style="endArrow=none;html=1;rounded=0;exitX=1;exitY=1;exitDx=0;exitDy=0;entryX=0;entryY=0;entryDx=0;entryDy=0;" edge="1" parent="1" source="u8hNJ6VD8W-UxZuqvrLK-10" target="u8hNJ6VD8W-UxZuqvrLK-4">
          <mxGeometry relative="1" as="geometry">
            <mxPoint x="20" y="170" as="sourcePoint" />
            <mxPoint x="224" y="100" as="targetPoint" />
          </mxGeometry>
        </mxCell>
        <mxCell id="u8hNJ6VD8W-UxZuqvrLK-20" value="" style="endArrow=none;html=1;rounded=0;exitX=1;exitY=0;exitDx=0;exitDy=0;entryX=0.5;entryY=1;entryDx=0;entryDy=0;" edge="1" parent="1" source="u8hNJ6VD8W-UxZuqvrLK-4" target="u8hNJ6VD8W-UxZuqvrLK-14">
          <mxGeometry relative="1" as="geometry">
            <mxPoint x="270" y="100" as="sourcePoint" />
            <mxPoint x="200" y="-131" as="targetPoint" />
          </mxGeometry>
        </mxCell>
        <mxCell id="u8hNJ6VD8W-UxZuqvrLK-21" value="" style="endArrow=none;html=1;rounded=0;entryX=0.28;entryY=0.93;entryDx=0;entryDy=0;entryPerimeter=0;exitX=0.608;exitY=0.02;exitDx=0;exitDy=0;exitPerimeter=0;" edge="1" parent="1" source="u8hNJ6VD8W-UxZuqvrLK-4" target="u8hNJ6VD8W-UxZuqvrLK-12">
          <mxGeometry relative="1" as="geometry">
            <mxPoint x="20" y="170" as="sourcePoint" />
            <mxPoint x="180" y="170" as="targetPoint" />
          </mxGeometry>
        </mxCell>
        <mxCell id="u8hNJ6VD8W-UxZuqvrLK-22" value="Nombre" style="ellipse;whiteSpace=wrap;html=1;align=center;" vertex="1" parent="1">
          <mxGeometry x="-110" y="260" width="100" height="40" as="geometry" />
        </mxCell>
        <mxCell id="u8hNJ6VD8W-UxZuqvrLK-23" value="ProductoID" style="ellipse;whiteSpace=wrap;html=1;align=center;fontStyle=4;" vertex="1" parent="1">
          <mxGeometry x="180" y="160" width="100" height="40" as="geometry" />
        </mxCell>
        <mxCell id="u8hNJ6VD8W-UxZuqvrLK-24" value="Precio" style="ellipse;whiteSpace=wrap;html=1;align=center;" vertex="1" parent="1">
          <mxGeometry x="-30" y="300" width="100" height="40" as="geometry" />
        </mxCell>
        <mxCell id="u8hNJ6VD8W-UxZuqvrLK-25" value="CategoriaID" style="ellipse;whiteSpace=wrap;html=1;align=center;fontStyle=4;" vertex="1" parent="1">
          <mxGeometry x="170" y="270" width="100" height="40" as="geometry" />
        </mxCell>
        <mxCell id="u8hNJ6VD8W-UxZuqvrLK-26" value="Stock" style="ellipse;whiteSpace=wrap;html=1;align=center;" vertex="1" parent="1">
          <mxGeometry x="70" y="300" width="100" height="40" as="geometry" />
        </mxCell>
        <mxCell id="u8hNJ6VD8W-UxZuqvrLK-27" value="ProveedorID" style="ellipse;whiteSpace=wrap;html=1;align=center;fontStyle=4;" vertex="1" parent="1">
          <mxGeometry x="220" y="210" width="100" height="40" as="geometry" />
        </mxCell>
        <mxCell id="u8hNJ6VD8W-UxZuqvrLK-28" value="" style="endArrow=none;html=1;rounded=0;entryX=0.25;entryY=1;entryDx=0;entryDy=0;exitX=0.32;exitY=0.098;exitDx=0;exitDy=0;exitPerimeter=0;" edge="1" parent="1" source="u8hNJ6VD8W-UxZuqvrLK-24" target="u8hNJ6VD8W-UxZuqvrLK-3">
          <mxGeometry relative="1" as="geometry">
            <mxPoint x="580" y="388.66999999999996" as="sourcePoint" />
            <mxPoint x="740" y="388.66999999999996" as="targetPoint" />
          </mxGeometry>
        </mxCell>
        <mxCell id="u8hNJ6VD8W-UxZuqvrLK-29" value="" style="endArrow=none;html=1;rounded=0;exitX=1;exitY=0;exitDx=0;exitDy=0;entryX=0;entryY=0.75;entryDx=0;entryDy=0;" edge="1" parent="1" source="u8hNJ6VD8W-UxZuqvrLK-22" target="u8hNJ6VD8W-UxZuqvrLK-3">
          <mxGeometry relative="1" as="geometry">
            <mxPoint x="490" y="298.67" as="sourcePoint" />
            <mxPoint x="650" y="298.67" as="targetPoint" />
          </mxGeometry>
        </mxCell>
        <mxCell id="u8hNJ6VD8W-UxZuqvrLK-30" value="" style="endArrow=none;html=1;rounded=0;entryX=1;entryY=0;entryDx=0;entryDy=0;exitX=0;exitY=1;exitDx=0;exitDy=0;" edge="1" parent="1" source="u8hNJ6VD8W-UxZuqvrLK-23" target="u8hNJ6VD8W-UxZuqvrLK-3">
          <mxGeometry relative="1" as="geometry">
            <mxPoint x="470" y="290" as="sourcePoint" />
            <mxPoint x="560" y="300" as="targetPoint" />
          </mxGeometry>
        </mxCell>
        <mxCell id="u8hNJ6VD8W-UxZuqvrLK-31" value="" style="endArrow=none;html=1;rounded=0;entryX=0;entryY=0;entryDx=0;entryDy=0;exitX=1;exitY=0.75;exitDx=0;exitDy=0;" edge="1" parent="1" source="u8hNJ6VD8W-UxZuqvrLK-3" target="u8hNJ6VD8W-UxZuqvrLK-25">
          <mxGeometry relative="1" as="geometry">
            <mxPoint x="620" y="318.67" as="sourcePoint" />
            <mxPoint x="780" y="318.67" as="targetPoint" />
          </mxGeometry>
        </mxCell>
        <mxCell id="u8hNJ6VD8W-UxZuqvrLK-32" value="" style="endArrow=none;html=1;rounded=0;exitX=0.5;exitY=1;exitDx=0;exitDy=0;entryX=0.5;entryY=0;entryDx=0;entryDy=0;" edge="1" parent="1" source="u8hNJ6VD8W-UxZuqvrLK-3" target="u8hNJ6VD8W-UxZuqvrLK-26">
          <mxGeometry relative="1" as="geometry">
            <mxPoint x="570" y="380" as="sourcePoint" />
            <mxPoint x="730" y="380" as="targetPoint" />
          </mxGeometry>
        </mxCell>
        <mxCell id="u8hNJ6VD8W-UxZuqvrLK-33" value="" style="endArrow=none;html=1;rounded=0;entryX=0.024;entryY=0.732;entryDx=0;entryDy=0;entryPerimeter=0;exitX=1;exitY=0.5;exitDx=0;exitDy=0;" edge="1" parent="1" source="u8hNJ6VD8W-UxZuqvrLK-3" target="u8hNJ6VD8W-UxZuqvrLK-27">
          <mxGeometry relative="1" as="geometry">
            <mxPoint x="660" y="320" as="sourcePoint" />
            <mxPoint x="800" y="318.67" as="targetPoint" />
          </mxGeometry>
        </mxCell>
        <mxCell id="u8hNJ6VD8W-UxZuqvrLK-34" value="Tiene" style="shape=rhombus;perimeter=rhombusPerimeter;whiteSpace=wrap;html=1;align=center;fillColor=#FFF2CC;" vertex="1" parent="1">
          <mxGeometry x="-350" y="200" width="120" height="60" as="geometry" />
        </mxCell>
        <mxCell id="u8hNJ6VD8W-UxZuqvrLK-35" value="Suministra" style="shape=rhombus;perimeter=rhombusPerimeter;whiteSpace=wrap;html=1;align=center;fillColor=#FFF2CC;" vertex="1" parent="1">
          <mxGeometry x="20" y="80" width="120" height="60" as="geometry" />
        </mxCell>
        <mxCell id="u8hNJ6VD8W-UxZuqvrLK-38" value="" style="endArrow=none;html=1;rounded=0;entryX=0.5;entryY=0;entryDx=0;entryDy=0;exitX=0.5;exitY=1;exitDx=0;exitDy=0;" edge="1" parent="1" source="u8hNJ6VD8W-UxZuqvrLK-2" target="u8hNJ6VD8W-UxZuqvrLK-34">
          <mxGeometry relative="1" as="geometry">
            <mxPoint x="-300" y="150" as="sourcePoint" />
            <mxPoint x="-140" y="150" as="targetPoint" />
          </mxGeometry>
        </mxCell>
        <mxCell id="u8hNJ6VD8W-UxZuqvrLK-40" value="" style="edgeStyle=entityRelationEdgeStyle;fontSize=12;html=1;endArrow=ERoneToMany;rounded=0;entryX=0;entryY=0.5;entryDx=0;entryDy=0;" edge="1" parent="1" target="u8hNJ6VD8W-UxZuqvrLK-3">
          <mxGeometry width="100" height="100" relative="1" as="geometry">
            <mxPoint x="-230" y="230" as="sourcePoint" />
            <mxPoint x="-130" y="130" as="targetPoint" />
          </mxGeometry>
        </mxCell>
        <mxCell id="u8hNJ6VD8W-UxZuqvrLK-41" value="" style="fontSize=12;html=1;endArrow=ERmany;rounded=0;entryX=0.5;entryY=0;entryDx=0;entryDy=0;exitX=0.5;exitY=1;exitDx=0;exitDy=0;" edge="1" parent="1" source="u8hNJ6VD8W-UxZuqvrLK-35" target="u8hNJ6VD8W-UxZuqvrLK-3">
          <mxGeometry width="100" height="100" relative="1" as="geometry">
            <mxPoint x="210" y="160" as="sourcePoint" />
            <mxPoint x="310" y="60" as="targetPoint" />
          </mxGeometry>
        </mxCell>
        <mxCell id="u8hNJ6VD8W-UxZuqvrLK-42" value="" style="endArrow=none;html=1;rounded=0;exitX=0.5;exitY=0;exitDx=0;exitDy=0;entryX=0.412;entryY=0.94;entryDx=0;entryDy=0;entryPerimeter=0;" edge="1" parent="1" source="u8hNJ6VD8W-UxZuqvrLK-35" target="u8hNJ6VD8W-UxZuqvrLK-4">
          <mxGeometry relative="1" as="geometry">
            <mxPoint x="180" y="110" as="sourcePoint" />
            <mxPoint x="340" y="110" as="targetPoint" />
          </mxGeometry>
        </mxCell>
        <mxCell id="u8hNJ6VD8W-UxZuqvrLK-43" value="Nombre" style="ellipse;whiteSpace=wrap;html=1;align=center;" vertex="1" parent="1">
          <mxGeometry x="430" y="-190" width="100" height="40" as="geometry" />
        </mxCell>
        <mxCell id="u8hNJ6VD8W-UxZuqvrLK-44" value="ClienteID" style="ellipse;whiteSpace=wrap;html=1;align=center;fontStyle=4;" vertex="1" parent="1">
          <mxGeometry x="380" y="-130" width="100" height="40" as="geometry" />
        </mxCell>
        <mxCell id="u8hNJ6VD8W-UxZuqvrLK-46" value="Apellido" style="ellipse;whiteSpace=wrap;html=1;align=center;" vertex="1" parent="1">
          <mxGeometry x="540" y="-190" width="100" height="40" as="geometry" />
        </mxCell>
        <mxCell id="u8hNJ6VD8W-UxZuqvrLK-47" value="Email" style="ellipse;whiteSpace=wrap;html=1;align=center;" vertex="1" parent="1">
          <mxGeometry x="620" y="-150" width="100" height="40" as="geometry" />
        </mxCell>
        <mxCell id="u8hNJ6VD8W-UxZuqvrLK-48" value="Telefono" style="ellipse;whiteSpace=wrap;html=1;align=center;" vertex="1" parent="1">
          <mxGeometry x="650" y="-90" width="100" height="40" as="geometry" />
        </mxCell>
        <mxCell id="u8hNJ6VD8W-UxZuqvrLK-49" value="Contiene" style="shape=rhombus;perimeter=rhombusPerimeter;whiteSpace=wrap;html=1;align=center;fillColor=#FFF2CC;" vertex="1" parent="1">
          <mxGeometry x="750" y="160" width="120" height="60" as="geometry" />
        </mxCell>
        <mxCell id="u8hNJ6VD8W-UxZuqvrLK-50" value="Realiza" style="shape=rhombus;perimeter=rhombusPerimeter;whiteSpace=wrap;html=1;align=center;fillColor=#FFF2CC;" vertex="1" parent="1">
          <mxGeometry x="490" y="50" width="120" height="60" as="geometry" />
        </mxCell>
        <mxCell id="u8hNJ6VD8W-UxZuqvrLK-51" value="VenteID" style="ellipse;whiteSpace=wrap;html=1;align=center;fontStyle=4;" vertex="1" parent="1">
          <mxGeometry x="380" y="110" width="100" height="40" as="geometry" />
        </mxCell>
        <mxCell id="u8hNJ6VD8W-UxZuqvrLK-52" value="ClienteID" style="ellipse;whiteSpace=wrap;html=1;align=center;fontStyle=4;" vertex="1" parent="1">
          <mxGeometry x="380" y="160" width="100" height="40" as="geometry" />
        </mxCell>
        <mxCell id="u8hNJ6VD8W-UxZuqvrLK-53" value="EmpleadoID" style="ellipse;whiteSpace=wrap;html=1;align=center;fontStyle=4;" vertex="1" parent="1">
          <mxGeometry x="380" y="200" width="100" height="40" as="geometry" />
        </mxCell>
        <mxCell id="u8hNJ6VD8W-UxZuqvrLK-54" value="Fecha" style="ellipse;whiteSpace=wrap;html=1;align=center;" vertex="1" parent="1">
          <mxGeometry x="430" y="240" width="100" height="40" as="geometry" />
        </mxCell>
        <mxCell id="u8hNJ6VD8W-UxZuqvrLK-55" value="Total" style="ellipse;whiteSpace=wrap;html=1;align=center;" vertex="1" parent="1">
          <mxGeometry x="580" y="230" width="100" height="40" as="geometry" />
        </mxCell>
        <mxCell id="u8hNJ6VD8W-UxZuqvrLK-56" value="" style="endArrow=none;html=1;rounded=0;entryX=0;entryY=0;entryDx=0;entryDy=0;exitX=1;exitY=1;exitDx=0;exitDy=0;" edge="1" parent="1" source="u8hNJ6VD8W-UxZuqvrLK-51" target="u8hNJ6VD8W-UxZuqvrLK-8">
          <mxGeometry relative="1" as="geometry">
            <mxPoint x="480" y="130" as="sourcePoint" />
            <mxPoint x="640" y="130" as="targetPoint" />
          </mxGeometry>
        </mxCell>
        <mxCell id="u8hNJ6VD8W-UxZuqvrLK-57" value="" style="endArrow=none;html=1;rounded=0;entryX=0;entryY=0.5;entryDx=0;entryDy=0;" edge="1" parent="1" source="u8hNJ6VD8W-UxZuqvrLK-52" target="u8hNJ6VD8W-UxZuqvrLK-8">
          <mxGeometry relative="1" as="geometry">
            <mxPoint x="490" y="179.32999999999998" as="sourcePoint" />
            <mxPoint x="650" y="179.32999999999998" as="targetPoint" />
          </mxGeometry>
        </mxCell>
        <mxCell id="u8hNJ6VD8W-UxZuqvrLK-58" value="" style="endArrow=none;html=1;rounded=0;entryX=0;entryY=0.75;entryDx=0;entryDy=0;exitX=1;exitY=0;exitDx=0;exitDy=0;" edge="1" parent="1" source="u8hNJ6VD8W-UxZuqvrLK-53" target="u8hNJ6VD8W-UxZuqvrLK-8">
          <mxGeometry relative="1" as="geometry">
            <mxPoint x="180" y="160" as="sourcePoint" />
            <mxPoint x="340" y="160" as="targetPoint" />
          </mxGeometry>
        </mxCell>
        <mxCell id="u8hNJ6VD8W-UxZuqvrLK-59" value="" style="endArrow=none;html=1;rounded=0;entryX=0.25;entryY=1;entryDx=0;entryDy=0;exitX=0.5;exitY=0;exitDx=0;exitDy=0;" edge="1" parent="1" source="u8hNJ6VD8W-UxZuqvrLK-54" target="u8hNJ6VD8W-UxZuqvrLK-8">
          <mxGeometry relative="1" as="geometry">
            <mxPoint x="180" y="160" as="sourcePoint" />
            <mxPoint x="340" y="160" as="targetPoint" />
          </mxGeometry>
        </mxCell>
        <mxCell id="u8hNJ6VD8W-UxZuqvrLK-60" value="" style="endArrow=none;html=1;rounded=0;entryX=0.75;entryY=1;entryDx=0;entryDy=0;exitX=0;exitY=0;exitDx=0;exitDy=0;" edge="1" parent="1" source="u8hNJ6VD8W-UxZuqvrLK-55" target="u8hNJ6VD8W-UxZuqvrLK-8">
          <mxGeometry relative="1" as="geometry">
            <mxPoint x="180" y="160" as="sourcePoint" />
            <mxPoint x="340" y="160" as="targetPoint" />
          </mxGeometry>
        </mxCell>
        <mxCell id="u8hNJ6VD8W-UxZuqvrLK-61" value="" style="endArrow=none;html=1;rounded=0;entryX=1;entryY=1;entryDx=0;entryDy=0;exitX=0;exitY=0.5;exitDx=0;exitDy=0;" edge="1" parent="1" source="u8hNJ6VD8W-UxZuqvrLK-5" target="u8hNJ6VD8W-UxZuqvrLK-44">
          <mxGeometry relative="1" as="geometry">
            <mxPoint x="290" y="-30" as="sourcePoint" />
            <mxPoint x="450" y="-30" as="targetPoint" />
          </mxGeometry>
        </mxCell>
        <mxCell id="u8hNJ6VD8W-UxZuqvrLK-62" value="" style="endArrow=none;html=1;rounded=0;entryX=0.619;entryY=1;entryDx=0;entryDy=0;entryPerimeter=0;exitX=0.25;exitY=0;exitDx=0;exitDy=0;" edge="1" parent="1" source="u8hNJ6VD8W-UxZuqvrLK-5" target="u8hNJ6VD8W-UxZuqvrLK-43">
          <mxGeometry relative="1" as="geometry">
            <mxPoint x="290" y="-30" as="sourcePoint" />
            <mxPoint x="450" y="-30" as="targetPoint" />
          </mxGeometry>
        </mxCell>
        <mxCell id="u8hNJ6VD8W-UxZuqvrLK-63" value="" style="endArrow=none;html=1;rounded=0;entryX=0.404;entryY=1;entryDx=0;entryDy=0;entryPerimeter=0;exitX=0.5;exitY=0;exitDx=0;exitDy=0;" edge="1" parent="1" source="u8hNJ6VD8W-UxZuqvrLK-5" target="u8hNJ6VD8W-UxZuqvrLK-46">
          <mxGeometry relative="1" as="geometry">
            <mxPoint x="290" y="-30" as="sourcePoint" />
            <mxPoint x="450" y="-30" as="targetPoint" />
          </mxGeometry>
        </mxCell>
        <mxCell id="u8hNJ6VD8W-UxZuqvrLK-64" value="" style="endArrow=none;html=1;rounded=0;entryX=0;entryY=1;entryDx=0;entryDy=0;exitX=0.75;exitY=0;exitDx=0;exitDy=0;" edge="1" parent="1" source="u8hNJ6VD8W-UxZuqvrLK-5" target="u8hNJ6VD8W-UxZuqvrLK-47">
          <mxGeometry relative="1" as="geometry">
            <mxPoint x="290" y="-30" as="sourcePoint" />
            <mxPoint x="450" y="-30" as="targetPoint" />
          </mxGeometry>
        </mxCell>
        <mxCell id="u8hNJ6VD8W-UxZuqvrLK-65" value="" style="endArrow=none;html=1;rounded=0;entryX=0;entryY=0.5;entryDx=0;entryDy=0;exitX=1;exitY=0.5;exitDx=0;exitDy=0;" edge="1" parent="1" source="u8hNJ6VD8W-UxZuqvrLK-5" target="u8hNJ6VD8W-UxZuqvrLK-48">
          <mxGeometry relative="1" as="geometry">
            <mxPoint x="290" y="-30" as="sourcePoint" />
            <mxPoint x="450" y="-30" as="targetPoint" />
          </mxGeometry>
        </mxCell>
        <mxCell id="u8hNJ6VD8W-UxZuqvrLK-67" value="Atiende" style="shape=rhombus;perimeter=rhombusPerimeter;whiteSpace=wrap;html=1;align=center;fillColor=#FFF2CC;" vertex="1" parent="1">
          <mxGeometry x="490" y="310" width="120" height="60" as="geometry" />
        </mxCell>
        <mxCell id="u8hNJ6VD8W-UxZuqvrLK-68" value="Nombre" style="ellipse;whiteSpace=wrap;html=1;align=center;" vertex="1" parent="1">
          <mxGeometry x="440" y="490" width="100" height="40" as="geometry" />
        </mxCell>
        <mxCell id="u8hNJ6VD8W-UxZuqvrLK-69" value="EmpleadoID" style="ellipse;whiteSpace=wrap;html=1;align=center;fontStyle=4;" vertex="1" parent="1">
          <mxGeometry x="370" y="430" width="100" height="40" as="geometry" />
        </mxCell>
        <mxCell id="u8hNJ6VD8W-UxZuqvrLK-70" value="Apellido" style="ellipse;whiteSpace=wrap;html=1;align=center;" vertex="1" parent="1">
          <mxGeometry x="530" y="520" width="100" height="40" as="geometry" />
        </mxCell>
        <mxCell id="u8hNJ6VD8W-UxZuqvrLK-71" value="Cargo" style="ellipse;whiteSpace=wrap;html=1;align=center;" vertex="1" parent="1">
          <mxGeometry x="610" y="480" width="100" height="40" as="geometry" />
        </mxCell>
        <mxCell id="u8hNJ6VD8W-UxZuqvrLK-72" value="Salario" style="ellipse;whiteSpace=wrap;html=1;align=center;" vertex="1" parent="1">
          <mxGeometry x="650" y="430" width="100" height="40" as="geometry" />
        </mxCell>
        <mxCell id="u8hNJ6VD8W-UxZuqvrLK-73" value="" style="endArrow=none;html=1;rounded=0;exitX=1;exitY=0.5;exitDx=0;exitDy=0;entryX=0;entryY=0.5;entryDx=0;entryDy=0;" edge="1" parent="1" source="u8hNJ6VD8W-UxZuqvrLK-69" target="u8hNJ6VD8W-UxZuqvrLK-6">
          <mxGeometry relative="1" as="geometry">
            <mxPoint x="290" y="370" as="sourcePoint" />
            <mxPoint x="450" y="370" as="targetPoint" />
          </mxGeometry>
        </mxCell>
        <mxCell id="u8hNJ6VD8W-UxZuqvrLK-74" value="" style="endArrow=none;html=1;rounded=0;entryX=0;entryY=1;entryDx=0;entryDy=0;exitX=0.5;exitY=0;exitDx=0;exitDy=0;" edge="1" parent="1" source="u8hNJ6VD8W-UxZuqvrLK-68" target="u8hNJ6VD8W-UxZuqvrLK-6">
          <mxGeometry relative="1" as="geometry">
            <mxPoint x="290" y="370" as="sourcePoint" />
            <mxPoint x="450" y="370" as="targetPoint" />
          </mxGeometry>
        </mxCell>
        <mxCell id="u8hNJ6VD8W-UxZuqvrLK-75" value="" style="endArrow=none;html=1;rounded=0;entryX=0.629;entryY=0.923;entryDx=0;entryDy=0;exitX=0.5;exitY=0;exitDx=0;exitDy=0;entryPerimeter=0;" edge="1" parent="1" source="u8hNJ6VD8W-UxZuqvrLK-70" target="u8hNJ6VD8W-UxZuqvrLK-6">
          <mxGeometry relative="1" as="geometry">
            <mxPoint x="290" y="370" as="sourcePoint" />
            <mxPoint x="450" y="370" as="targetPoint" />
          </mxGeometry>
        </mxCell>
        <mxCell id="u8hNJ6VD8W-UxZuqvrLK-76" value="" style="endArrow=none;html=1;rounded=0;entryX=1;entryY=1;entryDx=0;entryDy=0;exitX=0;exitY=0;exitDx=0;exitDy=0;" edge="1" parent="1" source="u8hNJ6VD8W-UxZuqvrLK-71" target="u8hNJ6VD8W-UxZuqvrLK-6">
          <mxGeometry relative="1" as="geometry">
            <mxPoint x="290" y="370" as="sourcePoint" />
            <mxPoint x="450" y="370" as="targetPoint" />
          </mxGeometry>
        </mxCell>
        <mxCell id="u8hNJ6VD8W-UxZuqvrLK-77" value="" style="endArrow=none;html=1;rounded=0;entryX=0;entryY=0.5;entryDx=0;entryDy=0;exitX=1;exitY=0.5;exitDx=0;exitDy=0;" edge="1" parent="1" source="u8hNJ6VD8W-UxZuqvrLK-6" target="u8hNJ6VD8W-UxZuqvrLK-72">
          <mxGeometry relative="1" as="geometry">
            <mxPoint x="290" y="370" as="sourcePoint" />
            <mxPoint x="450" y="370" as="targetPoint" />
          </mxGeometry>
        </mxCell>
        <mxCell id="u8hNJ6VD8W-UxZuqvrLK-78" value="VentaID" style="ellipse;whiteSpace=wrap;html=1;align=center;fontStyle=4;" vertex="1" parent="1">
          <mxGeometry x="860" y="220" width="100" height="40" as="geometry" />
        </mxCell>
        <mxCell id="u8hNJ6VD8W-UxZuqvrLK-79" value="Cantidad" style="ellipse;whiteSpace=wrap;html=1;align=center;" vertex="1" parent="1">
          <mxGeometry x="1040" y="270" width="100" height="40" as="geometry" />
        </mxCell>
        <mxCell id="u8hNJ6VD8W-UxZuqvrLK-80" value="PrecioUnitario" style="ellipse;whiteSpace=wrap;html=1;align=center;" vertex="1" parent="1">
          <mxGeometry x="1090" y="220" width="100" height="40" as="geometry" />
        </mxCell>
        <mxCell id="u8hNJ6VD8W-UxZuqvrLK-82" value="ProductoID" style="ellipse;whiteSpace=wrap;html=1;align=center;fontStyle=4;" vertex="1" parent="1">
          <mxGeometry x="920" y="280" width="100" height="40" as="geometry" />
        </mxCell>
        <mxCell id="u8hNJ6VD8W-UxZuqvrLK-83" value="" style="endArrow=none;html=1;rounded=0;entryX=0;entryY=1;entryDx=0;entryDy=0;exitX=0.7;exitY=0.003;exitDx=0;exitDy=0;exitPerimeter=0;" edge="1" parent="1" source="u8hNJ6VD8W-UxZuqvrLK-78" target="u8hNJ6VD8W-UxZuqvrLK-7">
          <mxGeometry relative="1" as="geometry">
            <mxPoint x="330" y="190" as="sourcePoint" />
            <mxPoint x="490" y="190" as="targetPoint" />
          </mxGeometry>
        </mxCell>
        <mxCell id="u8hNJ6VD8W-UxZuqvrLK-84" value="" style="endArrow=none;html=1;rounded=0;entryX=0.381;entryY=1.067;entryDx=0;entryDy=0;entryPerimeter=0;exitX=0.5;exitY=0;exitDx=0;exitDy=0;" edge="1" parent="1" source="u8hNJ6VD8W-UxZuqvrLK-82" target="u8hNJ6VD8W-UxZuqvrLK-7">
          <mxGeometry relative="1" as="geometry">
            <mxPoint x="330" y="190" as="sourcePoint" />
            <mxPoint x="490" y="190" as="targetPoint" />
          </mxGeometry>
        </mxCell>
        <mxCell id="u8hNJ6VD8W-UxZuqvrLK-85" value="" style="endArrow=none;html=1;rounded=0;entryX=0.75;entryY=1;entryDx=0;entryDy=0;exitX=0.3;exitY=0;exitDx=0;exitDy=0;exitPerimeter=0;" edge="1" parent="1" source="u8hNJ6VD8W-UxZuqvrLK-79" target="u8hNJ6VD8W-UxZuqvrLK-7">
          <mxGeometry relative="1" as="geometry">
            <mxPoint x="330" y="190" as="sourcePoint" />
            <mxPoint x="490" y="190" as="targetPoint" />
          </mxGeometry>
        </mxCell>
        <mxCell id="u8hNJ6VD8W-UxZuqvrLK-86" value="" style="endArrow=none;html=1;rounded=0;entryX=1;entryY=0.5;entryDx=0;entryDy=0;exitX=0;exitY=0;exitDx=0;exitDy=0;" edge="1" parent="1" source="u8hNJ6VD8W-UxZuqvrLK-80" target="u8hNJ6VD8W-UxZuqvrLK-7">
          <mxGeometry relative="1" as="geometry">
            <mxPoint x="330" y="190" as="sourcePoint" />
            <mxPoint x="490" y="190" as="targetPoint" />
          </mxGeometry>
        </mxCell>
        <mxCell id="u8hNJ6VD8W-UxZuqvrLK-87" value="" style="fontSize=12;html=1;endArrow=ERoneToMany;rounded=0;entryX=0.5;entryY=0;entryDx=0;entryDy=0;exitX=0.5;exitY=1;exitDx=0;exitDy=0;" edge="1" parent="1" source="u8hNJ6VD8W-UxZuqvrLK-50" target="u8hNJ6VD8W-UxZuqvrLK-8">
          <mxGeometry width="100" height="100" relative="1" as="geometry">
            <mxPoint x="360" y="200" as="sourcePoint" />
            <mxPoint x="460" y="100" as="targetPoint" />
          </mxGeometry>
        </mxCell>
        <mxCell id="u8hNJ6VD8W-UxZuqvrLK-88" value="" style="endArrow=none;html=1;rounded=0;entryX=0.5;entryY=0;entryDx=0;entryDy=0;exitX=0.5;exitY=1;exitDx=0;exitDy=0;" edge="1" parent="1" source="u8hNJ6VD8W-UxZuqvrLK-5" target="u8hNJ6VD8W-UxZuqvrLK-50">
          <mxGeometry relative="1" as="geometry">
            <mxPoint x="330" y="150" as="sourcePoint" />
            <mxPoint x="490" y="150" as="targetPoint" />
          </mxGeometry>
        </mxCell>
        <mxCell id="u8hNJ6VD8W-UxZuqvrLK-89" value="" style="fontSize=12;html=1;endArrow=ERoneToMany;rounded=0;entryX=0.5;entryY=1;entryDx=0;entryDy=0;exitX=0.5;exitY=0;exitDx=0;exitDy=0;" edge="1" parent="1" source="u8hNJ6VD8W-UxZuqvrLK-67" target="u8hNJ6VD8W-UxZuqvrLK-8">
          <mxGeometry width="100" height="100" relative="1" as="geometry">
            <mxPoint x="360" y="200" as="sourcePoint" />
            <mxPoint x="460" y="100" as="targetPoint" />
          </mxGeometry>
        </mxCell>
        <mxCell id="u8hNJ6VD8W-UxZuqvrLK-90" value="" style="endArrow=none;html=1;rounded=0;entryX=0.5;entryY=1;entryDx=0;entryDy=0;exitX=0.4;exitY=0;exitDx=0;exitDy=0;exitPerimeter=0;" edge="1" parent="1" source="u8hNJ6VD8W-UxZuqvrLK-6" target="u8hNJ6VD8W-UxZuqvrLK-67">
          <mxGeometry relative="1" as="geometry">
            <mxPoint x="330" y="280" as="sourcePoint" />
            <mxPoint x="490" y="280" as="targetPoint" />
          </mxGeometry>
        </mxCell>
        <mxCell id="u8hNJ6VD8W-UxZuqvrLK-91" value="" style="endArrow=none;html=1;rounded=0;entryX=1;entryY=0.5;entryDx=0;entryDy=0;exitX=0;exitY=0.5;exitDx=0;exitDy=0;" edge="1" parent="1" source="u8hNJ6VD8W-UxZuqvrLK-49" target="u8hNJ6VD8W-UxZuqvrLK-8">
          <mxGeometry relative="1" as="geometry">
            <mxPoint x="330" y="280" as="sourcePoint" />
            <mxPoint x="490" y="280" as="targetPoint" />
          </mxGeometry>
        </mxCell>
        <mxCell id="u8hNJ6VD8W-UxZuqvrLK-92" value="" style="edgeStyle=entityRelationEdgeStyle;fontSize=12;html=1;endArrow=ERoneToMany;rounded=0;exitX=1;exitY=0.5;exitDx=0;exitDy=0;entryX=0;entryY=0.5;entryDx=0;entryDy=0;" edge="1" parent="1" source="u8hNJ6VD8W-UxZuqvrLK-49" target="u8hNJ6VD8W-UxZuqvrLK-7">
          <mxGeometry width="100" height="100" relative="1" as="geometry">
            <mxPoint x="360" y="330" as="sourcePoint" />
            <mxPoint x="460" y="230" as="targetPoint" />
          </mxGeometry>
        </mxCell>
        <mxCell id="u8hNJ6VD8W-UxZuqvrLK-93" value="1" style="text;html=1;align=center;verticalAlign=middle;resizable=0;points=[];autosize=1;strokeColor=none;fillColor=none;" vertex="1" parent="1">
          <mxGeometry x="85" y="-22" width="30" height="30" as="geometry" />
        </mxCell>
        <mxCell id="u8hNJ6VD8W-UxZuqvrLK-94" value="M" style="text;html=1;align=center;verticalAlign=middle;resizable=0;points=[];autosize=1;strokeColor=none;fillColor=none;" vertex="1" parent="1">
          <mxGeometry x="75" y="178" width="30" height="30" as="geometry" />
        </mxCell>
        <mxCell id="u8hNJ6VD8W-UxZuqvrLK-95" value="1" style="text;html=1;align=center;verticalAlign=middle;resizable=0;points=[];autosize=1;strokeColor=none;fillColor=none;" vertex="1" parent="1">
          <mxGeometry x="-295" y="128" width="30" height="30" as="geometry" />
        </mxCell>
        <mxCell id="u8hNJ6VD8W-UxZuqvrLK-96" value="M" style="text;html=1;align=center;verticalAlign=middle;resizable=0;points=[];autosize=1;strokeColor=none;fillColor=none;" vertex="1" parent="1">
          <mxGeometry x="-5" y="188" width="30" height="30" as="geometry" />
        </mxCell>
        <mxCell id="u8hNJ6VD8W-UxZuqvrLK-97" value="1" style="text;html=1;align=center;verticalAlign=middle;resizable=0;points=[];autosize=1;strokeColor=none;fillColor=none;" vertex="1" parent="1">
          <mxGeometry x="545" y="-62" width="30" height="30" as="geometry" />
        </mxCell>
        <mxCell id="u8hNJ6VD8W-UxZuqvrLK-98" value="M" style="text;html=1;align=center;verticalAlign=middle;resizable=0;points=[];autosize=1;strokeColor=none;fillColor=none;" vertex="1" parent="1">
          <mxGeometry x="555" y="138" width="30" height="30" as="geometry" />
        </mxCell>
        <mxCell id="u8hNJ6VD8W-UxZuqvrLK-99" value="1" style="text;html=1;align=center;verticalAlign=middle;resizable=0;points=[];autosize=1;strokeColor=none;fillColor=none;" vertex="1" parent="1">
          <mxGeometry x="605" y="158" width="30" height="30" as="geometry" />
        </mxCell>
        <mxCell id="u8hNJ6VD8W-UxZuqvrLK-100" value="M" style="text;html=1;align=center;verticalAlign=middle;resizable=0;points=[];autosize=1;strokeColor=none;fillColor=none;" vertex="1" parent="1">
          <mxGeometry x="925" y="148" width="30" height="30" as="geometry" />
        </mxCell>
        <mxCell id="u8hNJ6VD8W-UxZuqvrLK-101" value="1" style="text;html=1;align=center;verticalAlign=middle;resizable=0;points=[];autosize=1;strokeColor=none;fillColor=none;" vertex="1" parent="1">
          <mxGeometry x="565" y="388" width="30" height="30" as="geometry" />
        </mxCell>
        <mxCell id="u8hNJ6VD8W-UxZuqvrLK-102" value="M" style="text;html=1;align=center;verticalAlign=middle;resizable=0;points=[];autosize=1;strokeColor=none;fillColor=none;" vertex="1" parent="1">
          <mxGeometry x="555" y="208" width="30" height="30" as="geometry" />
        </mxCell>
      </root>
    </mxGraphModel>
  </diagram>
</mxfile>
